<svg xmlns="http://www.w3.org/2000/svg" xmlns:xlink="http://www.w3.org/1999/xlink" width="500" zoomAndPan="magnify" viewBox="0 0 375 374.999991" height="500" preserveAspectRatio="xMidYMid meet" version="1.0"><defs><g/><clipPath id="id1"><path d="M 104.296875 122 L 164 122 L 164 193.589844 L 104.296875 193.589844 Z M 104.296875 122 " clip-rule="nonzero"/></clipPath><clipPath id="id2"><path d="M 123 103 L 194 103 L 194 193.589844 L 123 193.589844 Z M 123 103 " clip-rule="nonzero"/></clipPath><clipPath id="id3"><path d="M 179 103 L 251 103 L 251 193.589844 L 179 193.589844 Z M 179 103 " clip-rule="nonzero"/></clipPath><clipPath id="id4"><path d="M 233 155 L 270.796875 155 L 270.796875 193 L 233 193 Z M 233 155 " clip-rule="nonzero"/></clipPath></defs><g clip-path="url(#id1)"><path fill="#ffffff" d="M 115.148438 124.996094 C 115.761719 124.640625 116.394531 124.320312 117.042969 124.027344 C 117.6875 123.734375 118.347656 123.472656 119.023438 123.246094 C 119.695312 123.019531 120.378906 122.824219 121.070312 122.664062 C 121.761719 122.5 122.460938 122.375 123.164062 122.28125 C 123.871094 122.191406 124.578125 122.132812 125.289062 122.109375 C 126 122.085938 126.707031 122.097656 127.417969 122.144531 C 128.125 122.1875 128.832031 122.269531 129.535156 122.386719 C 130.234375 122.5 130.929688 122.648438 131.613281 122.832031 C 132.300781 123.015625 132.976562 123.230469 133.644531 123.480469 C 134.308594 123.730469 134.960938 124.011719 135.597656 124.324219 C 136.234375 124.636719 136.855469 124.980469 137.457031 125.355469 C 138.0625 125.730469 138.644531 126.132812 139.210938 126.5625 C 139.773438 126.992188 140.316406 127.453125 140.835938 127.933594 C 141.351562 128.417969 141.847656 128.925781 142.316406 129.460938 C 142.785156 129.992188 143.226562 130.546875 143.640625 131.121094 C 144.050781 131.695312 144.4375 132.292969 144.792969 132.90625 L 161.042969 160.964844 C 161.398438 161.578125 161.726562 162.207031 162.019531 162.851562 C 162.3125 163.496094 162.574219 164.152344 162.800781 164.824219 C 163.03125 165.492188 163.226562 166.171875 163.386719 166.863281 C 163.546875 167.550781 163.675781 168.25 163.769531 168.949219 C 163.863281 169.652344 163.921875 170.355469 163.945312 171.0625 C 163.96875 171.773438 163.957031 172.480469 163.910156 173.183594 C 163.863281 173.890625 163.78125 174.59375 163.667969 175.292969 C 163.550781 175.992188 163.402344 176.683594 163.214844 177.367188 C 163.03125 178.050781 162.816406 178.722656 162.566406 179.386719 C 162.316406 180.046875 162.03125 180.695312 161.71875 181.332031 C 161.402344 181.96875 161.058594 182.585938 160.683594 183.1875 C 160.308594 183.789062 159.902344 184.367188 159.472656 184.929688 C 159.039062 185.492188 158.578125 186.03125 158.09375 186.546875 C 157.605469 187.0625 157.097656 187.554688 156.5625 188.023438 C 156.027344 188.488281 155.472656 188.929688 154.894531 189.339844 C 154.316406 189.753906 153.71875 190.136719 153.105469 190.488281 C 152.488281 190.84375 151.855469 191.167969 151.210938 191.460938 C 150.5625 191.753906 149.902344 192.011719 149.230469 192.242188 C 148.554688 192.46875 147.875 192.664062 147.179688 192.824219 C 146.488281 192.984375 145.789062 193.109375 145.085938 193.203125 C 144.382812 193.296875 143.671875 193.355469 142.964844 193.378906 C 142.253906 193.402344 141.542969 193.390625 140.832031 193.34375 C 140.125 193.296875 139.417969 193.214844 138.71875 193.101562 C 138.015625 192.984375 137.324219 192.835938 136.636719 192.652344 C 135.949219 192.46875 135.273438 192.253906 134.609375 192.003906 C 133.941406 191.753906 133.292969 191.472656 132.652344 191.160156 C 132.015625 190.847656 131.394531 190.503906 130.792969 190.128906 C 130.1875 189.757812 129.605469 189.355469 129.039062 188.921875 C 128.476562 188.492188 127.9375 188.035156 127.417969 187.550781 C 126.898438 187.066406 126.40625 186.558594 125.9375 186.027344 C 125.46875 185.492188 125.027344 184.941406 124.613281 184.363281 C 124.199219 183.789062 123.8125 183.195312 123.457031 182.582031 L 107.207031 154.511719 C 106.851562 153.898438 106.527344 153.269531 106.234375 152.625 C 105.9375 151.980469 105.679688 151.324219 105.449219 150.652344 C 105.21875 149.980469 105.023438 149.300781 104.863281 148.613281 C 104.703125 147.921875 104.574219 147.226562 104.480469 146.527344 C 104.390625 145.824219 104.332031 145.117188 104.308594 144.410156 C 104.285156 143.703125 104.296875 142.996094 104.339844 142.289062 C 104.386719 141.585938 104.46875 140.882812 104.585938 140.183594 C 104.699219 139.484375 104.851562 138.792969 105.035156 138.109375 C 105.21875 137.425781 105.433594 136.753906 105.6875 136.089844 C 105.9375 135.425781 106.21875 134.777344 106.53125 134.144531 C 106.847656 133.507812 107.191406 132.890625 107.566406 132.289062 C 107.941406 131.6875 108.347656 131.105469 108.78125 130.546875 C 109.210938 129.984375 109.671875 129.445312 110.15625 128.929688 C 110.644531 128.410156 111.152344 127.917969 111.6875 127.453125 C 112.222656 126.988281 112.777344 126.546875 113.355469 126.132812 C 113.933594 125.722656 114.53125 125.339844 115.148438 124.984375 Z M 115.148438 124.996094 " fill-opacity="1" fill-rule="evenodd"/></g><g clip-path="url(#id2)"><path fill="#ffffff" d="M 183.046875 105.953125 C 182.429688 105.597656 181.796875 105.273438 181.152344 104.980469 C 180.503906 104.691406 179.84375 104.429688 179.171875 104.203125 C 178.496094 103.972656 177.816406 103.78125 177.121094 103.617188 C 176.429688 103.457031 175.730469 103.332031 175.027344 103.238281 C 174.324219 103.144531 173.613281 103.085938 172.90625 103.066406 C 172.195312 103.042969 171.484375 103.050781 170.773438 103.097656 C 170.066406 103.144531 169.359375 103.226562 168.660156 103.339844 C 167.957031 103.457031 167.265625 103.605469 166.578125 103.789062 C 165.890625 103.972656 165.214844 104.1875 164.550781 104.4375 C 163.882812 104.6875 163.234375 104.96875 162.59375 105.28125 C 161.957031 105.59375 161.335938 105.9375 160.734375 106.3125 C 160.128906 106.683594 159.546875 107.085938 158.984375 107.519531 C 158.417969 107.949219 157.878906 108.40625 157.359375 108.890625 C 156.839844 109.375 156.347656 109.882812 155.878906 110.414062 C 155.410156 110.949219 154.96875 111.503906 154.554688 112.078125 C 154.140625 112.652344 153.753906 113.246094 153.398438 113.859375 L 126.105469 160.964844 C 125.75 161.578125 125.425781 162.207031 125.132812 162.851562 C 124.839844 163.496094 124.578125 164.152344 124.351562 164.824219 C 124.121094 165.492188 123.925781 166.175781 123.765625 166.863281 C 123.605469 167.550781 123.476562 168.25 123.382812 168.949219 C 123.292969 169.652344 123.234375 170.355469 123.210938 171.0625 C 123.1875 171.769531 123.199219 172.476562 123.246094 173.183594 C 123.292969 173.890625 123.371094 174.59375 123.488281 175.292969 C 123.605469 175.988281 123.753906 176.679688 123.9375 177.363281 C 124.121094 178.046875 124.339844 178.722656 124.589844 179.382812 C 124.839844 180.046875 125.121094 180.695312 125.433594 181.332031 C 125.75 181.964844 126.09375 182.582031 126.46875 183.183594 C 126.84375 183.785156 127.25 184.367188 127.679688 184.929688 C 128.113281 185.492188 128.574219 186.03125 129.058594 186.546875 C 129.542969 187.0625 130.054688 187.554688 130.589844 188.019531 C 131.121094 188.488281 131.679688 188.929688 132.257812 189.339844 C 132.835938 189.753906 133.429688 190.136719 134.046875 190.488281 C 134.660156 190.84375 135.292969 191.167969 135.941406 191.460938 C 136.585938 191.75 137.246094 192.011719 137.921875 192.238281 C 138.59375 192.464844 139.277344 192.660156 139.96875 192.820312 C 140.660156 192.980469 141.359375 193.109375 142.0625 193.199219 C 142.769531 193.292969 143.476562 193.351562 144.1875 193.375 C 144.898438 193.398438 145.605469 193.386719 146.316406 193.339844 C 147.023438 193.292969 147.730469 193.210938 148.429688 193.097656 C 149.132812 192.980469 149.828125 192.832031 150.511719 192.648438 C 151.199219 192.464844 151.875 192.25 152.539062 192 C 153.207031 191.75 153.855469 191.46875 154.496094 191.15625 C 155.132812 190.84375 155.753906 190.5 156.355469 190.128906 C 156.960938 189.753906 157.542969 189.351562 158.105469 188.921875 C 158.671875 188.488281 159.210938 188.03125 159.730469 187.546875 C 160.25 187.066406 160.742188 186.558594 161.210938 186.023438 C 161.679688 185.492188 162.121094 184.9375 162.535156 184.363281 C 162.949219 183.789062 163.335938 183.195312 163.691406 182.582031 L 190.984375 135.46875 C 191.34375 134.855469 191.667969 134.226562 191.960938 133.582031 C 192.253906 132.9375 192.515625 132.277344 192.746094 131.609375 C 192.972656 130.9375 193.167969 130.257812 193.332031 129.570312 C 193.492188 128.878906 193.621094 128.183594 193.714844 127.480469 C 193.808594 126.78125 193.867188 126.074219 193.890625 125.367188 C 193.914062 124.660156 193.902344 123.953125 193.855469 123.246094 C 193.808594 122.539062 193.726562 121.835938 193.613281 121.136719 C 193.496094 120.441406 193.347656 119.75 193.164062 119.066406 C 192.980469 118.378906 192.761719 117.707031 192.511719 117.042969 C 192.261719 116.382812 191.976562 115.734375 191.664062 115.097656 C 191.347656 114.464844 191.003906 113.84375 190.628906 113.242188 C 190.253906 112.644531 189.847656 112.0625 189.414062 111.5 C 188.984375 110.9375 188.523438 110.398438 188.035156 109.882812 C 187.550781 109.367188 187.039062 108.875 186.503906 108.40625 C 185.972656 107.941406 185.414062 107.503906 184.835938 107.089844 C 184.257812 106.679688 183.660156 106.296875 183.046875 105.941406 Z M 183.046875 105.953125 " fill-opacity="1" fill-rule="evenodd"/></g><g clip-path="url(#id3)"><path fill="#de5d1d" d="M 239.679688 105.953125 C 239.0625 105.597656 238.429688 105.273438 237.785156 104.980469 C 237.136719 104.691406 236.476562 104.429688 235.804688 104.203125 C 235.128906 103.972656 234.449219 103.78125 233.753906 103.617188 C 233.0625 103.457031 232.363281 103.332031 231.660156 103.238281 C 230.957031 103.144531 230.25 103.085938 229.539062 103.066406 C 228.828125 103.042969 228.117188 103.050781 227.40625 103.097656 C 226.699219 103.144531 225.992188 103.226562 225.292969 103.339844 C 224.589844 103.457031 223.898438 103.605469 223.210938 103.789062 C 222.523438 103.972656 221.847656 104.1875 221.183594 104.4375 C 220.515625 104.6875 219.867188 104.96875 219.226562 105.28125 C 218.589844 105.59375 217.96875 105.9375 217.367188 106.3125 C 216.761719 106.683594 216.179688 107.085938 215.617188 107.519531 C 215.050781 107.949219 214.511719 108.40625 213.992188 108.890625 C 213.472656 109.375 212.980469 109.882812 212.511719 110.414062 C 212.042969 110.949219 211.601562 111.503906 211.1875 112.078125 C 210.773438 112.652344 210.386719 113.246094 210.03125 113.859375 L 182.738281 160.964844 C 182.382812 161.578125 182.058594 162.207031 181.765625 162.851562 C 181.472656 163.496094 181.210938 164.152344 180.980469 164.824219 C 180.753906 165.492188 180.558594 166.171875 180.394531 166.863281 C 180.234375 167.550781 180.105469 168.25 180.011719 168.949219 C 179.921875 169.652344 179.863281 170.355469 179.839844 171.0625 C 179.816406 171.773438 179.828125 172.480469 179.875 173.183594 C 179.917969 173.890625 180 174.59375 180.117188 175.292969 C 180.230469 175.992188 180.382812 176.683594 180.566406 177.367188 C 180.75 178.050781 180.96875 178.722656 181.21875 179.386719 C 181.46875 180.046875 181.75 180.695312 182.0625 181.332031 C 182.378906 181.96875 182.722656 182.585938 183.097656 183.1875 C 183.472656 183.789062 183.878906 184.367188 184.3125 184.929688 C 184.742188 185.492188 185.203125 186.03125 185.6875 186.546875 C 186.175781 187.0625 186.6875 187.554688 187.21875 188.023438 C 187.753906 188.488281 188.3125 188.929688 188.886719 189.339844 C 189.464844 189.753906 190.0625 190.136719 190.679688 190.488281 C 191.292969 190.84375 191.925781 191.167969 192.574219 191.460938 C 193.21875 191.753906 193.878906 192.011719 194.554688 192.242188 C 195.226562 192.46875 195.910156 192.664062 196.601562 192.824219 C 197.292969 192.984375 197.992188 193.109375 198.695312 193.203125 C 199.402344 193.296875 200.109375 193.355469 200.820312 193.378906 C 201.53125 193.402344 202.238281 193.390625 202.949219 193.34375 C 203.660156 193.296875 204.363281 193.214844 205.066406 193.101562 C 205.765625 192.984375 206.460938 192.835938 207.148438 192.652344 C 207.832031 192.46875 208.507812 192.253906 209.175781 192.003906 C 209.839844 191.753906 210.492188 191.472656 211.128906 191.160156 C 211.765625 190.847656 212.386719 190.503906 212.992188 190.128906 C 213.59375 189.757812 214.179688 189.355469 214.742188 188.921875 C 215.304688 188.492188 215.847656 188.035156 216.367188 187.550781 C 216.882812 187.066406 217.378906 186.558594 217.847656 186.027344 C 218.316406 185.492188 218.757812 184.941406 219.171875 184.363281 C 219.585938 183.789062 219.96875 183.195312 220.324219 182.582031 L 247.628906 135.476562 C 247.984375 134.863281 248.308594 134.234375 248.601562 133.589844 C 248.898438 132.945312 249.15625 132.289062 249.386719 131.617188 C 249.617188 130.949219 249.8125 130.269531 249.972656 129.578125 C 250.132812 128.890625 250.261719 128.195312 250.355469 127.492188 C 250.445312 126.789062 250.503906 126.085938 250.527344 125.378906 C 250.550781 124.671875 250.539062 123.964844 250.496094 123.257812 C 250.449219 122.550781 250.367188 121.847656 250.25 121.148438 C 250.136719 120.453125 249.984375 119.761719 249.800781 119.078125 C 249.617188 118.390625 249.402344 117.71875 249.148438 117.054688 C 248.898438 116.394531 248.617188 115.746094 248.304688 115.109375 C 247.988281 114.476562 247.644531 113.855469 247.269531 113.257812 C 246.894531 112.65625 246.488281 112.074219 246.054688 111.511719 C 245.625 110.949219 245.164062 110.410156 244.679688 109.894531 C 244.191406 109.378906 243.683594 108.886719 243.148438 108.417969 C 242.613281 107.953125 242.058594 107.511719 241.480469 107.101562 C 240.902344 106.6875 240.304688 106.304688 239.6875 105.953125 Z M 239.679688 105.953125 " fill-opacity="1" fill-rule="evenodd"/></g><g clip-path="url(#id4)"><path fill="#de5d1d" d="M 233.292969 174.242188 C 233.292969 173.628906 233.324219 173.019531 233.382812 172.410156 C 233.445312 171.800781 233.535156 171.195312 233.652344 170.597656 C 233.773438 169.996094 233.921875 169.40625 234.101562 168.820312 C 234.28125 168.234375 234.484375 167.660156 234.722656 167.09375 C 234.957031 166.527344 235.21875 165.976562 235.507812 165.4375 C 235.796875 164.898438 236.113281 164.375 236.453125 163.867188 C 236.796875 163.355469 237.160156 162.867188 237.550781 162.394531 C 237.941406 161.921875 238.351562 161.46875 238.785156 161.035156 C 239.21875 160.601562 239.675781 160.191406 240.148438 159.804688 C 240.625 159.417969 241.117188 159.050781 241.628906 158.710938 C 242.136719 158.375 242.664062 158.058594 243.207031 157.769531 C 243.746094 157.480469 244.300781 157.222656 244.867188 156.988281 C 245.4375 156.753906 246.015625 156.546875 246.601562 156.371094 C 247.1875 156.191406 247.785156 156.042969 248.386719 155.925781 C 248.988281 155.804688 249.59375 155.714844 250.207031 155.65625 C 250.816406 155.59375 251.429688 155.566406 252.042969 155.566406 C 252.660156 155.566406 253.269531 155.59375 253.882812 155.65625 C 254.492188 155.714844 255.101562 155.804688 255.703125 155.925781 C 256.304688 156.042969 256.898438 156.191406 257.488281 156.371094 C 258.074219 156.546875 258.652344 156.753906 259.21875 156.988281 C 259.789062 157.222656 260.34375 157.480469 260.882812 157.769531 C 261.425781 158.058594 261.949219 158.375 262.460938 158.710938 C 262.972656 159.050781 263.464844 159.417969 263.941406 159.804688 C 264.414062 160.191406 264.867188 160.601562 265.304688 161.035156 C 265.738281 161.46875 266.148438 161.921875 266.539062 162.394531 C 266.929688 162.867188 267.292969 163.355469 267.636719 163.867188 C 267.976562 164.375 268.292969 164.898438 268.582031 165.4375 C 268.871094 165.976562 269.132812 166.527344 269.367188 167.09375 C 269.601562 167.660156 269.808594 168.234375 269.988281 168.820312 C 270.164062 169.40625 270.316406 169.996094 270.433594 170.597656 C 270.554688 171.195312 270.644531 171.800781 270.703125 172.410156 C 270.765625 173.019531 270.796875 173.628906 270.796875 174.242188 C 270.796875 174.851562 270.765625 175.460938 270.703125 176.070312 C 270.644531 176.679688 270.554688 177.285156 270.433594 177.882812 C 270.316406 178.484375 270.164062 179.078125 269.988281 179.660156 C 269.808594 180.246094 269.601562 180.820312 269.367188 181.386719 C 269.132812 181.953125 268.871094 182.503906 268.582031 183.042969 C 268.292969 183.582031 267.976562 184.105469 267.636719 184.617188 C 267.292969 185.125 266.929688 185.613281 266.539062 186.085938 C 266.148438 186.558594 265.738281 187.011719 265.304688 187.445312 C 264.867188 187.878906 264.414062 188.289062 263.941406 188.675781 C 263.464844 189.0625 262.972656 189.429688 262.460938 189.769531 C 261.949219 190.109375 261.425781 190.421875 260.882812 190.710938 C 260.34375 191 259.789062 191.261719 259.21875 191.492188 C 258.652344 191.726562 258.074219 191.933594 257.488281 192.109375 C 256.898438 192.289062 256.304688 192.4375 255.703125 192.554688 C 255.101562 192.675781 254.492188 192.765625 253.882812 192.824219 C 253.269531 192.886719 252.660156 192.914062 252.042969 192.914062 C 251.429688 192.914062 250.816406 192.886719 250.207031 192.824219 C 249.59375 192.765625 248.988281 192.675781 248.386719 192.554688 C 247.785156 192.4375 247.1875 192.289062 246.601562 192.109375 C 246.015625 191.933594 245.4375 191.726562 244.867188 191.492188 C 244.300781 191.261719 243.746094 191 243.207031 190.710938 C 242.664062 190.421875 242.136719 190.109375 241.628906 189.769531 C 241.117188 189.429688 240.625 189.0625 240.148438 188.675781 C 239.675781 188.289062 239.21875 187.878906 238.785156 187.445312 C 238.351562 187.011719 237.941406 186.558594 237.550781 186.085938 C 237.160156 185.613281 236.796875 185.125 236.453125 184.617188 C 236.113281 184.105469 235.796875 183.582031 235.507812 183.042969 C 235.21875 182.503906 234.957031 181.953125 234.722656 181.386719 C 234.484375 180.820312 234.28125 180.246094 234.101562 179.660156 C 233.921875 179.078125 233.773438 178.484375 233.652344 177.882812 C 233.535156 177.285156 233.445312 176.679688 233.382812 176.070312 C 233.324219 175.460938 233.292969 174.851562 233.292969 174.242188 Z M 233.292969 174.242188 " fill-opacity="1" fill-rule="evenodd"/></g><g fill="#ffffff" fill-opacity="1"><g transform="translate(44.123549, 244.91474)"><g><path d="M 7.734375 0 L 4.78125 -33.828125 L 11.40625 -33.828125 L 12.765625 -7.15625 L 24.59375 -33.828125 L 31.515625 -33.828125 L 33.6875 -7.203125 L 44.46875 -33.828125 L 51.171875 -33.828125 L 36 0 L 28.65625 0 L 26.390625 -25.03125 L 15.03125 0 Z M 7.734375 0 "/></g></g></g><g fill="#ffffff" fill-opacity="1"><g transform="translate(90.796672, 244.91474)"><g><path d="M 9.078125 0.578125 C 6.378906 0.578125 4.398438 -0.0390625 3.140625 -1.28125 C 1.878906 -2.519531 1.25 -4.007812 1.25 -5.75 C 1.25 -8.332031 2.328125 -10.378906 4.484375 -11.890625 C 6.648438 -13.398438 9.535156 -14.15625 13.140625 -14.15625 L 19.234375 -14.15625 L 19.328125 -14.734375 C 19.359375 -14.929688 19.378906 -15.132812 19.390625 -15.34375 C 19.410156 -15.550781 19.421875 -15.738281 19.421875 -15.90625 C 19.421875 -17.125 19.035156 -18.03125 18.265625 -18.625 C 17.492188 -19.226562 16.507812 -19.53125 15.3125 -19.53125 C 14.0625 -19.53125 12.910156 -19.226562 11.859375 -18.625 C 10.816406 -18.03125 10.070312 -17.15625 9.625 -16 L 3.578125 -16 C 4.054688 -17.738281 4.898438 -19.25 6.109375 -20.53125 C 7.316406 -21.820312 8.789062 -22.8125 10.53125 -23.5 C 12.269531 -24.195312 14.15625 -24.546875 16.1875 -24.546875 C 19.15625 -24.546875 21.484375 -23.882812 23.171875 -22.5625 C 24.859375 -21.25 25.703125 -19.347656 25.703125 -16.859375 C 25.703125 -16.546875 25.6875 -16.203125 25.65625 -15.828125 C 25.625 -15.453125 25.578125 -15.085938 25.515625 -14.734375 L 22.90625 0 L 17.390625 0 L 17.640625 -3.71875 C 16.703125 -2.5 15.53125 -1.476562 14.125 -0.65625 C 12.726562 0.164062 11.046875 0.578125 9.078125 0.578125 Z M 11.359375 -4.25 C 13.128906 -4.25 14.601562 -4.828125 15.78125 -5.984375 C 16.957031 -7.148438 17.816406 -8.585938 18.359375 -10.296875 L 13.140625 -10.296875 C 11.535156 -10.296875 10.265625 -9.972656 9.328125 -9.328125 C 8.390625 -8.679688 7.921875 -7.796875 7.921875 -6.671875 C 7.921875 -5.867188 8.234375 -5.265625 8.859375 -4.859375 C 9.492188 -4.453125 10.328125 -4.25 11.359375 -4.25 Z M 11.359375 -4.25 "/></g></g></g><g fill="#ffffff" fill-opacity="1"><g transform="translate(116.403833, 244.91474)"><g><path d="M 17.828125 10.625 L 20.203125 -3.4375 C 19.296875 -2.375 18.15625 -1.4375 16.78125 -0.625 C 15.414062 0.175781 13.738281 0.578125 11.75 0.578125 C 9.75 0.578125 8.039062 0.113281 6.625 -0.8125 C 5.207031 -1.75 4.109375 -3.023438 3.328125 -4.640625 C 2.554688 -6.253906 2.171875 -8.054688 2.171875 -10.046875 C 2.171875 -12.785156 2.773438 -15.25 3.984375 -17.4375 C 5.191406 -19.632812 6.816406 -21.367188 8.859375 -22.640625 C 10.910156 -23.910156 13.191406 -24.546875 15.703125 -24.546875 C 17.703125 -24.546875 19.3125 -24.179688 20.53125 -23.453125 C 21.757812 -22.734375 22.679688 -21.8125 23.296875 -20.6875 L 24.546875 -23.96875 L 30.0625 -23.96875 L 24.015625 10.625 Z M 14.109375 -4.828125 C 15.628906 -4.828125 16.972656 -5.222656 18.140625 -6.015625 C 19.316406 -6.804688 20.25 -7.859375 20.9375 -9.171875 C 21.632812 -10.492188 21.984375 -11.945312 21.984375 -13.53125 C 21.984375 -15.207031 21.484375 -16.5625 20.484375 -17.59375 C 19.492188 -18.625 18.128906 -19.140625 16.390625 -19.140625 C 14.867188 -19.140625 13.519531 -18.769531 12.34375 -18.03125 C 11.164062 -17.289062 10.238281 -16.289062 9.5625 -15.03125 C 8.882812 -13.769531 8.546875 -12.351562 8.546875 -10.78125 C 8.546875 -9.101562 9.035156 -7.691406 10.015625 -6.546875 C 11.003906 -5.398438 12.367188 -4.828125 14.109375 -4.828125 Z M 14.109375 -4.828125 "/></g></g></g><g fill="#ffffff" fill-opacity="1"><g transform="translate(145.393146, 244.91474)"><g><path d="M 9.078125 0.578125 C 6.378906 0.578125 4.398438 -0.0390625 3.140625 -1.28125 C 1.878906 -2.519531 1.25 -4.007812 1.25 -5.75 C 1.25 -8.332031 2.328125 -10.378906 4.484375 -11.890625 C 6.648438 -13.398438 9.535156 -14.15625 13.140625 -14.15625 L 19.234375 -14.15625 L 19.328125 -14.734375 C 19.359375 -14.929688 19.378906 -15.132812 19.390625 -15.34375 C 19.410156 -15.550781 19.421875 -15.738281 19.421875 -15.90625 C 19.421875 -17.125 19.035156 -18.03125 18.265625 -18.625 C 17.492188 -19.226562 16.507812 -19.53125 15.3125 -19.53125 C 14.0625 -19.53125 12.910156 -19.226562 11.859375 -18.625 C 10.816406 -18.03125 10.070312 -17.15625 9.625 -16 L 3.578125 -16 C 4.054688 -17.738281 4.898438 -19.25 6.109375 -20.53125 C 7.316406 -21.820312 8.789062 -22.8125 10.53125 -23.5 C 12.269531 -24.195312 14.15625 -24.546875 16.1875 -24.546875 C 19.15625 -24.546875 21.484375 -23.882812 23.171875 -22.5625 C 24.859375 -21.25 25.703125 -19.347656 25.703125 -16.859375 C 25.703125 -16.546875 25.6875 -16.203125 25.65625 -15.828125 C 25.625 -15.453125 25.578125 -15.085938 25.515625 -14.734375 L 22.90625 0 L 17.390625 0 L 17.640625 -3.71875 C 16.703125 -2.5 15.53125 -1.476562 14.125 -0.65625 C 12.726562 0.164062 11.046875 0.578125 9.078125 0.578125 Z M 11.359375 -4.25 C 13.128906 -4.25 14.601562 -4.828125 15.78125 -5.984375 C 16.957031 -7.148438 17.816406 -8.585938 18.359375 -10.296875 L 13.140625 -10.296875 C 11.535156 -10.296875 10.265625 -9.972656 9.328125 -9.328125 C 8.390625 -8.679688 7.921875 -7.796875 7.921875 -6.671875 C 7.921875 -5.867188 8.234375 -5.265625 8.859375 -4.859375 C 9.492188 -4.453125 10.328125 -4.25 11.359375 -4.25 Z M 11.359375 -4.25 "/></g></g></g><g fill="#ffffff" fill-opacity="1"><g transform="translate(171.000306, 244.91474)"><g><path d="M 1.0625 0 L 5.265625 -23.96875 L 10.828125 -23.96875 L 10.625 -19.625 C 11.757812 -21.101562 13.15625 -22.289062 14.8125 -23.1875 C 16.46875 -24.09375 18.3125 -24.546875 20.34375 -24.546875 L 19.1875 -18.03125 L 17.5 -18.03125 C 15.4375 -18.03125 13.660156 -17.550781 12.171875 -16.59375 C 10.691406 -15.644531 9.726562 -13.898438 9.28125 -11.359375 L 7.25 0 Z M 1.0625 0 "/></g></g></g><g fill="#ffffff" fill-opacity="1"><g transform="translate(188.297043, 244.91474)"><g/></g></g><g fill="#ffffff" fill-opacity="1"><g transform="translate(198.587902, 244.91474)"><g><path d="M 1.203125 0 L 7.15625 -33.828125 L 13.34375 -33.828125 L 10.96875 -20.15625 L 25.859375 -33.828125 L 33.484375 -33.828125 L 18.65625 -20.390625 L 27.890625 0 L 20.546875 0 L 13.53125 -15.796875 L 9.515625 -12.125 L 7.390625 0 Z M 1.203125 0 "/></g></g></g><g fill="#ffffff" fill-opacity="1"><g transform="translate(227.673848, 244.91474)"><g><path d="M 9.90625 -27.546875 C 8.78125 -27.546875 7.851562 -27.890625 7.125 -28.578125 C 6.40625 -29.273438 6.046875 -30.140625 6.046875 -31.171875 C 6.046875 -32.203125 6.40625 -33.0625 7.125 -33.75 C 7.851562 -34.445312 8.78125 -34.796875 9.90625 -34.796875 C 11.03125 -34.796875 11.957031 -34.445312 12.6875 -33.75 C 13.414062 -33.0625 13.78125 -32.203125 13.78125 -31.171875 C 13.78125 -30.140625 13.414062 -29.273438 12.6875 -28.578125 C 11.957031 -27.890625 11.03125 -27.546875 9.90625 -27.546875 Z M 1.3125 0 L 5.515625 -23.96875 L 11.703125 -23.96875 L 7.484375 0 Z M 1.3125 0 "/></g></g></g><g fill="#ffffff" fill-opacity="1"><g transform="translate(238.544488, 244.91474)"><g><path d="M 2.078125 10.625 L 9.765625 -1.59375 L 8.3125 -1.59375 L 2.953125 -23.96875 L 9.5625 -23.96875 L 13.4375 -7.109375 L 23.390625 -23.96875 L 29.96875 -23.96875 L 8.609375 10.625 Z M 2.078125 10.625 "/></g></g></g><g fill="#ffffff" fill-opacity="1"><g transform="translate(264.973037, 244.91474)"><g><path d="M 9.078125 0.578125 C 6.378906 0.578125 4.398438 -0.0390625 3.140625 -1.28125 C 1.878906 -2.519531 1.25 -4.007812 1.25 -5.75 C 1.25 -8.332031 2.328125 -10.378906 4.484375 -11.890625 C 6.648438 -13.398438 9.535156 -14.15625 13.140625 -14.15625 L 19.234375 -14.15625 L 19.328125 -14.734375 C 19.359375 -14.929688 19.378906 -15.132812 19.390625 -15.34375 C 19.410156 -15.550781 19.421875 -15.738281 19.421875 -15.90625 C 19.421875 -17.125 19.035156 -18.03125 18.265625 -18.625 C 17.492188 -19.226562 16.507812 -19.53125 15.3125 -19.53125 C 14.0625 -19.53125 12.910156 -19.226562 11.859375 -18.625 C 10.816406 -18.03125 10.070312 -17.15625 9.625 -16 L 3.578125 -16 C 4.054688 -17.738281 4.898438 -19.25 6.109375 -20.53125 C 7.316406 -21.820312 8.789062 -22.8125 10.53125 -23.5 C 12.269531 -24.195312 14.15625 -24.546875 16.1875 -24.546875 C 19.15625 -24.546875 21.484375 -23.882812 23.171875 -22.5625 C 24.859375 -21.25 25.703125 -19.347656 25.703125 -16.859375 C 25.703125 -16.546875 25.6875 -16.203125 25.65625 -15.828125 C 25.625 -15.453125 25.578125 -15.085938 25.515625 -14.734375 L 22.90625 0 L 17.390625 0 L 17.640625 -3.71875 C 16.703125 -2.5 15.53125 -1.476562 14.125 -0.65625 C 12.726562 0.164062 11.046875 0.578125 9.078125 0.578125 Z M 11.359375 -4.25 C 13.128906 -4.25 14.601562 -4.828125 15.78125 -5.984375 C 16.957031 -7.148438 17.816406 -8.585938 18.359375 -10.296875 L 13.140625 -10.296875 C 11.535156 -10.296875 10.265625 -9.972656 9.328125 -9.328125 C 8.390625 -8.679688 7.921875 -7.796875 7.921875 -6.671875 C 7.921875 -5.867188 8.234375 -5.265625 8.859375 -4.859375 C 9.492188 -4.453125 10.328125 -4.25 11.359375 -4.25 Z M 11.359375 -4.25 "/></g></g></g><g fill="#ffffff" fill-opacity="1"><g transform="translate(290.580197, 244.91474)"><g><path d="M 1.0625 0 L 5.265625 -23.96875 L 10.734375 -23.96875 L 10.578125 -20.015625 C 11.578125 -21.398438 12.832031 -22.5 14.34375 -23.3125 C 15.863281 -24.132812 17.554688 -24.546875 19.421875 -24.546875 C 21.910156 -24.546875 23.835938 -23.859375 25.203125 -22.484375 C 26.566406 -21.117188 27.25 -19.148438 27.25 -16.578125 C 27.25 -15.671875 27.15625 -14.65625 26.96875 -13.53125 L 24.546875 0 L 18.359375 0 L 20.6875 -12.953125 C 20.71875 -13.335938 20.753906 -13.695312 20.796875 -14.03125 C 20.847656 -14.375 20.875 -14.691406 20.875 -14.984375 C 20.875 -17.878906 19.441406 -19.328125 16.578125 -19.328125 C 14.867188 -19.328125 13.351562 -18.722656 12.03125 -17.515625 C 10.707031 -16.304688 9.851562 -14.65625 9.46875 -12.5625 L 7.25 0 Z M 1.0625 0 "/></g></g></g><g fill="#ffffff" fill-opacity="1"><g transform="translate(317.830111, 244.91474)"><g><path d="M 9.90625 -27.546875 C 8.78125 -27.546875 7.851562 -27.890625 7.125 -28.578125 C 6.40625 -29.273438 6.046875 -30.140625 6.046875 -31.171875 C 6.046875 -32.203125 6.40625 -33.0625 7.125 -33.75 C 7.851562 -34.445312 8.78125 -34.796875 9.90625 -34.796875 C 11.03125 -34.796875 11.957031 -34.445312 12.6875 -33.75 C 13.414062 -33.0625 13.78125 -32.203125 13.78125 -31.171875 C 13.78125 -30.140625 13.414062 -29.273438 12.6875 -28.578125 C 11.957031 -27.890625 11.03125 -27.546875 9.90625 -27.546875 Z M 1.3125 0 L 5.515625 -23.96875 L 11.703125 -23.96875 L 7.484375 0 Z M 1.3125 0 "/></g></g></g><g fill="#de5d1d" fill-opacity="1"><g transform="translate(94.599278, 269.41012)"><g><path d="M 2.515625 -5.875 L 2.515625 -3.96875 L 5.859375 -3.96875 L 5.859375 -2.625 L 2.515625 -2.625 L 2.515625 0 L 0.859375 0 L 0.859375 -7.203125 L 6.296875 -7.203125 L 6.296875 -5.875 Z M 2.515625 -5.875 "/></g></g></g><g fill="#de5d1d" fill-opacity="1"><g transform="translate(104.056074, 269.41012)"><g><path d="M 5.453125 0 L 4.0625 -2.015625 L 2.515625 -2.015625 L 2.515625 0 L 0.859375 0 L 0.859375 -7.203125 L 3.96875 -7.203125 C 4.613281 -7.203125 5.171875 -7.09375 5.640625 -6.875 C 6.109375 -6.664062 6.46875 -6.363281 6.71875 -5.96875 C 6.976562 -5.582031 7.109375 -5.125 7.109375 -4.59375 C 7.109375 -4.0625 6.976562 -3.597656 6.71875 -3.203125 C 6.457031 -2.816406 6.09375 -2.519531 5.625 -2.3125 L 7.234375 0 Z M 5.421875 -4.59375 C 5.421875 -5 5.289062 -5.304688 5.03125 -5.515625 C 4.769531 -5.734375 4.382812 -5.84375 3.875 -5.84375 L 2.515625 -5.84375 L 2.515625 -3.34375 L 3.875 -3.34375 C 4.382812 -3.34375 4.769531 -3.453125 5.03125 -3.671875 C 5.289062 -3.890625 5.421875 -4.195312 5.421875 -4.59375 Z M 5.421875 -4.59375 "/></g></g></g><g fill="#de5d1d" fill-opacity="1"><g transform="translate(114.500621, 269.41012)"><g><path d="M 4.34375 0.125 C 3.59375 0.125 2.914062 -0.0351562 2.3125 -0.359375 C 1.71875 -0.679688 1.25 -1.125 0.90625 -1.6875 C 0.570312 -2.257812 0.40625 -2.898438 0.40625 -3.609375 C 0.40625 -4.316406 0.570312 -4.953125 0.90625 -5.515625 C 1.25 -6.078125 1.71875 -6.519531 2.3125 -6.84375 C 2.914062 -7.164062 3.59375 -7.328125 4.34375 -7.328125 C 5.09375 -7.328125 5.765625 -7.164062 6.359375 -6.84375 C 6.960938 -6.519531 7.429688 -6.078125 7.765625 -5.515625 C 8.109375 -4.953125 8.28125 -4.316406 8.28125 -3.609375 C 8.28125 -2.898438 8.109375 -2.257812 7.765625 -1.6875 C 7.429688 -1.125 6.960938 -0.679688 6.359375 -0.359375 C 5.765625 -0.0351562 5.09375 0.125 4.34375 0.125 Z M 4.34375 -1.296875 C 4.769531 -1.296875 5.15625 -1.394531 5.5 -1.59375 C 5.84375 -1.789062 6.109375 -2.0625 6.296875 -2.40625 C 6.492188 -2.757812 6.59375 -3.160156 6.59375 -3.609375 C 6.59375 -4.046875 6.492188 -4.441406 6.296875 -4.796875 C 6.109375 -5.148438 5.84375 -5.421875 5.5 -5.609375 C 5.15625 -5.804688 4.769531 -5.90625 4.34375 -5.90625 C 3.914062 -5.90625 3.53125 -5.804688 3.1875 -5.609375 C 2.84375 -5.421875 2.570312 -5.148438 2.375 -4.796875 C 2.1875 -4.441406 2.09375 -4.046875 2.09375 -3.609375 C 2.09375 -3.160156 2.1875 -2.757812 2.375 -2.40625 C 2.570312 -2.0625 2.84375 -1.789062 3.1875 -1.59375 C 3.53125 -1.394531 3.914062 -1.296875 4.34375 -1.296875 Z M 4.34375 -1.296875 "/></g></g></g><g fill="#de5d1d" fill-opacity="1"><g transform="translate(126.066689, 269.41012)"><g><path d="M 7.46875 -7.203125 L 7.46875 0 L 6.09375 0 L 2.5 -4.375 L 2.5 0 L 0.859375 0 L 0.859375 -7.203125 L 2.234375 -7.203125 L 5.8125 -2.828125 L 5.8125 -7.203125 Z M 7.46875 -7.203125 "/></g></g></g><g fill="#de5d1d" fill-opacity="1"><g transform="translate(137.262346, 269.41012)"><g><path d="M 2.34375 -5.84375 L 0.046875 -5.84375 L 0.046875 -7.203125 L 6.328125 -7.203125 L 6.328125 -5.84375 L 4.015625 -5.84375 L 4.015625 0 L 2.34375 0 Z M 2.34375 -5.84375 "/></g></g></g><g fill="#de5d1d" fill-opacity="1"><g transform="translate(146.503066, 269.41012)"><g/></g></g><g fill="#de5d1d" fill-opacity="1"><g transform="translate(152.296929, 269.41012)"><g><path d="M 6.4375 -1.34375 L 6.4375 0 L 0.859375 0 L 0.859375 -7.203125 L 6.296875 -7.203125 L 6.296875 -5.875 L 2.515625 -5.875 L 2.515625 -4.296875 L 5.859375 -4.296875 L 5.859375 -3 L 2.515625 -3 L 2.515625 -1.34375 Z M 6.4375 -1.34375 "/></g></g></g><g fill="#de5d1d" fill-opacity="1"><g transform="translate(162.082972, 269.41012)"><g><path d="M 7.46875 -7.203125 L 7.46875 0 L 6.09375 0 L 2.5 -4.375 L 2.5 0 L 0.859375 0 L 0.859375 -7.203125 L 2.234375 -7.203125 L 5.8125 -2.828125 L 5.8125 -7.203125 Z M 7.46875 -7.203125 "/></g></g></g><g fill="#de5d1d" fill-opacity="1"><g transform="translate(173.278629, 269.41012)"><g><path d="M 0.859375 -7.203125 L 4.125 -7.203125 C 4.90625 -7.203125 5.597656 -7.050781 6.203125 -6.75 C 6.804688 -6.457031 7.273438 -6.039062 7.609375 -5.5 C 7.941406 -4.957031 8.109375 -4.328125 8.109375 -3.609375 C 8.109375 -2.878906 7.941406 -2.242188 7.609375 -1.703125 C 7.273438 -1.160156 6.804688 -0.738281 6.203125 -0.4375 C 5.597656 -0.144531 4.90625 0 4.125 0 L 0.859375 0 Z M 4.046875 -1.375 C 4.765625 -1.375 5.335938 -1.570312 5.765625 -1.96875 C 6.203125 -2.375 6.421875 -2.921875 6.421875 -3.609375 C 6.421875 -4.296875 6.203125 -4.835938 5.765625 -5.234375 C 5.335938 -5.640625 4.765625 -5.84375 4.046875 -5.84375 L 2.515625 -5.84375 L 2.515625 -1.375 Z M 4.046875 -1.375 "/></g></g></g><g fill="#de5d1d" fill-opacity="1"><g transform="translate(184.659497, 269.41012)"><g/></g></g><g fill="#de5d1d" fill-opacity="1"><g transform="translate(190.45336, 269.41012)"><g><path d="M 0.859375 -7.203125 L 4.125 -7.203125 C 4.90625 -7.203125 5.597656 -7.050781 6.203125 -6.75 C 6.804688 -6.457031 7.273438 -6.039062 7.609375 -5.5 C 7.941406 -4.957031 8.109375 -4.328125 8.109375 -3.609375 C 8.109375 -2.878906 7.941406 -2.242188 7.609375 -1.703125 C 7.273438 -1.160156 6.804688 -0.738281 6.203125 -0.4375 C 5.597656 -0.144531 4.90625 0 4.125 0 L 0.859375 0 Z M 4.046875 -1.375 C 4.765625 -1.375 5.335938 -1.570312 5.765625 -1.96875 C 6.203125 -2.375 6.421875 -2.921875 6.421875 -3.609375 C 6.421875 -4.296875 6.203125 -4.835938 5.765625 -5.234375 C 5.335938 -5.640625 4.765625 -5.84375 4.046875 -5.84375 L 2.515625 -5.84375 L 2.515625 -1.375 Z M 4.046875 -1.375 "/></g></g></g><g fill="#de5d1d" fill-opacity="1"><g transform="translate(201.834234, 269.41012)"><g><path d="M 6.4375 -1.34375 L 6.4375 0 L 0.859375 0 L 0.859375 -7.203125 L 6.296875 -7.203125 L 6.296875 -5.875 L 2.515625 -5.875 L 2.515625 -4.296875 L 5.859375 -4.296875 L 5.859375 -3 L 2.515625 -3 L 2.515625 -1.34375 Z M 6.4375 -1.34375 "/></g></g></g><g fill="#de5d1d" fill-opacity="1"><g transform="translate(211.620282, 269.41012)"><g><path d="M 7.78125 -7.203125 L 4.671875 0 L 3.015625 0 L -0.09375 -7.203125 L 1.703125 -7.203125 L 3.90625 -2.0625 L 6.125 -7.203125 Z M 7.78125 -7.203125 "/></g></g></g><g fill="#de5d1d" fill-opacity="1"><g transform="translate(222.178005, 269.41012)"><g><path d="M 6.4375 -1.34375 L 6.4375 0 L 0.859375 0 L 0.859375 -7.203125 L 6.296875 -7.203125 L 6.296875 -5.875 L 2.515625 -5.875 L 2.515625 -4.296875 L 5.859375 -4.296875 L 5.859375 -3 L 2.515625 -3 L 2.515625 -1.34375 Z M 6.4375 -1.34375 "/></g></g></g><g fill="#de5d1d" fill-opacity="1"><g transform="translate(231.964054, 269.41012)"><g><path d="M 0.859375 -7.203125 L 2.515625 -7.203125 L 2.515625 -1.359375 L 6.140625 -1.359375 L 6.140625 0 L 0.859375 0 Z M 0.859375 -7.203125 "/></g></g></g><g fill="#de5d1d" fill-opacity="1"><g transform="translate(241.060733, 269.41012)"><g><path d="M 4.34375 0.125 C 3.59375 0.125 2.914062 -0.0351562 2.3125 -0.359375 C 1.71875 -0.679688 1.25 -1.125 0.90625 -1.6875 C 0.570312 -2.257812 0.40625 -2.898438 0.40625 -3.609375 C 0.40625 -4.316406 0.570312 -4.953125 0.90625 -5.515625 C 1.25 -6.078125 1.71875 -6.519531 2.3125 -6.84375 C 2.914062 -7.164062 3.59375 -7.328125 4.34375 -7.328125 C 5.09375 -7.328125 5.765625 -7.164062 6.359375 -6.84375 C 6.960938 -6.519531 7.429688 -6.078125 7.765625 -5.515625 C 8.109375 -4.953125 8.28125 -4.316406 8.28125 -3.609375 C 8.28125 -2.898438 8.109375 -2.257812 7.765625 -1.6875 C 7.429688 -1.125 6.960938 -0.679688 6.359375 -0.359375 C 5.765625 -0.0351562 5.09375 0.125 4.34375 0.125 Z M 4.34375 -1.296875 C 4.769531 -1.296875 5.15625 -1.394531 5.5 -1.59375 C 5.84375 -1.789062 6.109375 -2.0625 6.296875 -2.40625 C 6.492188 -2.757812 6.59375 -3.160156 6.59375 -3.609375 C 6.59375 -4.046875 6.492188 -4.441406 6.296875 -4.796875 C 6.109375 -5.148438 5.84375 -5.421875 5.5 -5.609375 C 5.15625 -5.804688 4.769531 -5.90625 4.34375 -5.90625 C 3.914062 -5.90625 3.53125 -5.804688 3.1875 -5.609375 C 2.84375 -5.421875 2.570312 -5.148438 2.375 -4.796875 C 2.1875 -4.441406 2.09375 -4.046875 2.09375 -3.609375 C 2.09375 -3.160156 2.1875 -2.757812 2.375 -2.40625 C 2.570312 -2.0625 2.84375 -1.789062 3.1875 -1.59375 C 3.53125 -1.394531 3.914062 -1.296875 4.34375 -1.296875 Z M 4.34375 -1.296875 "/></g></g></g><g fill="#de5d1d" fill-opacity="1"><g transform="translate(252.626795, 269.41012)"><g><path d="M 3.96875 -7.203125 C 4.613281 -7.203125 5.171875 -7.09375 5.640625 -6.875 C 6.109375 -6.664062 6.46875 -6.363281 6.71875 -5.96875 C 6.976562 -5.582031 7.109375 -5.125 7.109375 -4.59375 C 7.109375 -4.0625 6.976562 -3.597656 6.71875 -3.203125 C 6.46875 -2.804688 6.109375 -2.503906 5.640625 -2.296875 C 5.171875 -2.085938 4.613281 -1.984375 3.96875 -1.984375 L 2.515625 -1.984375 L 2.515625 0 L 0.859375 0 L 0.859375 -7.203125 Z M 3.875 -3.34375 C 4.382812 -3.34375 4.769531 -3.453125 5.03125 -3.671875 C 5.289062 -3.890625 5.421875 -4.195312 5.421875 -4.59375 C 5.421875 -5 5.289062 -5.304688 5.03125 -5.515625 C 4.769531 -5.734375 4.382812 -5.84375 3.875 -5.84375 L 2.515625 -5.84375 L 2.515625 -3.34375 Z M 3.875 -3.34375 "/></g></g></g><g fill="#de5d1d" fill-opacity="1"><g transform="translate(263.040483, 269.41012)"><g><path d="M 6.4375 -1.34375 L 6.4375 0 L 0.859375 0 L 0.859375 -7.203125 L 6.296875 -7.203125 L 6.296875 -5.875 L 2.515625 -5.875 L 2.515625 -4.296875 L 5.859375 -4.296875 L 5.859375 -3 L 2.515625 -3 L 2.515625 -1.34375 Z M 6.4375 -1.34375 "/></g></g></g><g fill="#de5d1d" fill-opacity="1"><g transform="translate(272.826531, 269.41012)"><g><path d="M 5.453125 0 L 4.0625 -2.015625 L 2.515625 -2.015625 L 2.515625 0 L 0.859375 0 L 0.859375 -7.203125 L 3.96875 -7.203125 C 4.613281 -7.203125 5.171875 -7.09375 5.640625 -6.875 C 6.109375 -6.664062 6.46875 -6.363281 6.71875 -5.96875 C 6.976562 -5.582031 7.109375 -5.125 7.109375 -4.59375 C 7.109375 -4.0625 6.976562 -3.597656 6.71875 -3.203125 C 6.457031 -2.816406 6.09375 -2.519531 5.625 -2.3125 L 7.234375 0 Z M 5.421875 -4.59375 C 5.421875 -5 5.289062 -5.304688 5.03125 -5.515625 C 4.769531 -5.734375 4.382812 -5.84375 3.875 -5.84375 L 2.515625 -5.84375 L 2.515625 -3.34375 L 3.875 -3.34375 C 4.382812 -3.34375 4.769531 -3.453125 5.03125 -3.671875 C 5.289062 -3.890625 5.421875 -4.195312 5.421875 -4.59375 Z M 5.421875 -4.59375 "/></g></g></g></svg>